<svg width="200" height="60" viewBox="0 0 200 60" xmlns="http://www.w3.org/2000/svg">
  <defs>
    <linearGradient id="textGradient" x1="0%" y1="0%" x2="100%" y2="0%">
      <stop offset="0%" style="stop-color:#32CD32;stop-opacity:1" />
      <stop offset="100%" style="stop-color:#8A2BE2;stop-opacity:1" />
    </linearGradient>
    <filter id="dropShadow" x="-20%" y="-20%" width="140%" height="140%">
      <feDropShadow dx="2" dy="2" stdDeviation="2" flood-color="rgba(0,0,0,0.3)"/>
    </filter>
  </defs>
  
  <!-- Stylized 'e' / Tennis racket shape - improved design -->
  <path 
    d="M12 15 C12 22, 18 25, 25 25 C32 25, 38 22, 38 18 C38 14, 32 11, 25 11 C18 11, 12 14, 12 18 M12 18 C12 25, 18 28, 25 28 C32 28, 38 25, 38 21 M38 18 L45 18 M38 21 L45 21"
    fill="#32CD32" 
    stroke="#32CD32" 
    stroke-width="2.5"
    stroke-linecap="round"
    filter="url(#dropShadow)"
  />
  
  <!-- Text: "expert tennis academy" with improved styling -->
  <text x="55" y="22" font-family="Arial, sans-serif" font-size="14" font-weight="normal" fill="url(#textGradient)" filter="url(#dropShadow)">
    expert
  </text>
  <text x="55" y="38" font-family="Arial, sans-serif" font-size="18" font-weight="bold" fill="url(#textGradient)" filter="url(#dropShadow)">
    tennis academy
  </text>
</svg>
